<svg xmlns="http://www.w3.org/2000/svg" width="40" height="40" viewBox="0 0 40 40">
  <g id="Group_2777" data-name="Group 2777" transform="translate(-16 -94)">
    <circle id="Ellipse_31" data-name="Ellipse 31" cx="20" cy="20" r="20" transform="translate(16 94)" fill="#29c17e" opacity="0.2"/>
    <path id="Path_143" data-name="Path 143" d="M43,1927v14H29v-14H43m1.1-2H27.9a.9.9,0,0,0-.9.9v16.2a.967.967,0,0,0,.9.9H44.1a1.061,1.061,0,0,0,.9-.9v-16.2A.967.967,0,0,0,44.1,1925Zm-9.1,4h6v2H35Zm0,4h6v2H35Zm0,4h6v2H35Zm-4-8h2v2H31Zm0,4h2v2H31Zm0,4h2v2H31Z" transform="translate(0 -1820)" fill="#29c17e"/>
  </g>
</svg>
