<svg xmlns="http://www.w3.org/2000/svg" width="20.068" height="20" viewBox="0 0 20.068 20">
  <g id="Group_44" data-name="Group 44" transform="translate(-1570.966 -2263)">
    <path id="Path_54" data-name="Path 54" d="M1587.118,2266.915a5.343,5.343,0,0,0-7.554,0,22.725,22.725,0,0,0-5.741,8.392,7.046,7.046,0,0,0-.451,3.41c.176.9.29,1.05.592,1.352a1.979,1.979,0,0,0,2.8,0c3.593-3.593,5.62-3.822,7.249-4.006a4.176,4.176,0,0,0,3.11-1.594,5.343,5.343,0,0,0,0-7.554Zm-1.272,5.345a2.433,2.433,0,1,1,.714-1.722A2.418,2.418,0,0,1,1585.846,2272.26Z" fill="#29c17e"/>
    <path id="Path_55" data-name="Path 55" d="M1588.78,2265.253a7.692,7.692,0,0,0-10.878,0,24.974,24.974,0,0,0-6.307,9.3,9.244,9.244,0,0,0-.531,4.612,4.326,4.326,0,0,0,7.358,2.563c3.011-3.011,4.455-3.174,5.85-3.332a6.421,6.421,0,0,0,4.508-2.268,7.691,7.691,0,0,0,0-10.879Zm-.831,10.047a5.264,5.264,0,0,1-3.809,1.932c-1.522.172-3.247.367-6.549,3.669a3.155,3.155,0,0,1-5.373-1.958,8.163,8.163,0,0,1,.491-4.011,23.845,23.845,0,0,1,6.024-8.848,6.517,6.517,0,0,1,9.216,9.216Z" fill="#29c17e"/>
    <path id="Path_56" data-name="Path 56" d="M1584.124,2269.278a1.26,1.26,0,1,0,.891.369A1.25,1.25,0,0,0,1584.124,2269.278Z" fill="#29c17e"/>
  </g>
</svg>
