<svg xmlns="http://www.w3.org/2000/svg" width="40" height="40" viewBox="0 0 40 40">
  <g id="Group_2782" data-name="Group 2782" transform="translate(-16 -374)">
    <circle id="Ellipse_36" data-name="Ellipse 36" cx="20" cy="20" r="20" transform="translate(16 374)" fill="#29c17e" opacity="0.2"/>
    <path id="Path_152" data-name="Path 152" d="M36,2204a10,10,0,1,0,10,10A10,10,0,0,0,36,2204Zm1,17H35v-2h2Zm2.07-7.75-.9.92A3.4,3.4,0,0,0,37,2217H35v-.5a4.025,4.025,0,0,1,1.17-2.83l1.24-1.26A1.955,1.955,0,0,0,38,2211a2,2,0,0,0-4,0H32a4,4,0,0,1,8,0A3.182,3.182,0,0,1,39.07,2213.25Z" transform="translate(0 -1820)" fill="#29c17e"/>
  </g>
</svg>
