<svg xmlns="http://www.w3.org/2000/svg" width="13.062" height="22" viewBox="0 0 13.062 22">
  <g id="Group_46" data-name="Group 46" transform="translate(-1746.469 -2262)">
    <path id="Path_59" data-name="Path 59" d="M1757.974,2274.2l.687-7.993a3.824,3.824,0,0,0-1-2.99,3.886,3.886,0,0,0-2.935-1.22h-3.093a3.851,3.851,0,0,0-2.935,1.177,4.015,4.015,0,0,0-1,3.076l.687,7.95Z" fill="#29c17e"/>
    <path id="Path_60" data-name="Path 60" d="M1758.16,2274.891h-9.969a1.573,1.573,0,0,0-1.722,1.375v1.031a1.622,1.622,0,0,0,1.375,1.537v4.822a.617.617,0,0,0,.347.344h.688c.094,0,0-.249,0-.344v-4.64h8.25v4.64a.617.617,0,0,0,.347.344h.688c.095,0,0-.249,0-.344v-4.822a1.481,1.481,0,0,0,1.375-1.537v-1.031A1.268,1.268,0,0,0,1758.16,2274.891Z" fill="#29c17e"/>
  </g>
</svg>
