<svg xmlns="http://www.w3.org/2000/svg" width="40" height="40" viewBox="0 0 40 40">
  <g id="Group_2783" data-name="Group 2783" transform="translate(-16 -430)">
    <circle id="Ellipse_37" data-name="Ellipse 37" cx="20" cy="20" r="20" transform="translate(16 430)" fill="#29c17e" opacity="0.2"/>
    <path id="Path_156" data-name="Path 156" d="M43,2260H29a2,2,0,0,0-2,2v14a2,2,0,0,0,2,2h4l3,3,3-3h4a2.006,2.006,0,0,0,2-2v-14A2.006,2.006,0,0,0,43,2260Zm-6,16H35v-2h2Zm2.07-7.75-.9.92A3.4,3.4,0,0,0,37,2272H35v-.5a4.025,4.025,0,0,1,1.17-2.83l1.24-1.26A1.955,1.955,0,0,0,38,2266a2,2,0,0,0-4,0H32a4,4,0,0,1,8,0A3.182,3.182,0,0,1,39.07,2268.25Z" transform="translate(0 -1820)" fill="#29c17e"/>
  </g>
</svg>
