<svg xmlns="http://www.w3.org/2000/svg" width="18.658" height="18" viewBox="0 0 18.658 18">
  <g id="Group_42" data-name="Group 42" transform="translate(-1743.671 -2142)">
    <path id="Path_49" data-name="Path 49" d="M1749.027,2148.438a2.775,2.775,0,0,1-.347-.426l-.426.426a1.642,1.642,0,0,0,0,2.319l4.638,4.638a1.643,1.643,0,0,0,2.319,0l.529-.529a3.226,3.226,0,0,1-.915-.631Z" fill="#29c17e"/>
    <path id="Path_50" data-name="Path 50" d="M1762.288,2144.75a.545.545,0,0,0-.506-.338,3.205,3.205,0,0,1-2.252-.933l-.84-.839a2.188,2.188,0,0,0-3.092,0,2.157,2.157,0,0,0-.566,1.013,1.636,1.636,0,0,0-2.14,2.465l-.773-.773a1.64,1.64,0,0,0-2.319,2.319l5.8,5.8a2.181,2.181,0,0,0,3.5-2.5,2.163,2.163,0,0,0,1.134-.593,2.209,2.209,0,0,0,.161-2.905l-.565-.572a2.724,2.724,0,0,0,1.564-.775l.773-.773A.547.547,0,0,0,1762.288,2144.75Z" fill="#29c17e"/>
    <path id="Path_51" data-name="Path 51" d="M1743.949,2157.051a1.947,1.947,0,0,0,2.672,2.671l5.607-3.446-4.855-4.855Z" fill="#29c17e"/>
  </g>
</svg>
