<svg xmlns="http://www.w3.org/2000/svg" width="24" height="24" viewBox="0 0 24 24">
  <g id="Group_35" data-name="Group 35" transform="translate(-1653 -1912)">
    <path id="Path_29" data-name="Path 29" d="M1653,1912h24v24h-24Z" fill="none"/>
    <path id="Path_30" data-name="Path 30" d="M1675,1921h-4.79l-4.38-6.56a.993.993,0,0,0-.83-.42.977.977,0,0,0-.83.43l-4.38,6.55H1655a1,1,0,0,0-1,1,.842.842,0,0,0,.04.27l2.54,9.27a1.989,1.989,0,0,0,1.92,1.46h13a2.01,2.01,0,0,0,1.93-1.46l2.54-9.27.03-.27A1,1,0,0,0,1675,1921Zm-10-4.2,2.8,4.2h-5.6Zm6.5,14.2-12.99.01-2.2-8.01h17.39Zm-6.5-6a2,2,0,1,0,2,2A2.006,2.006,0,0,0,1665,1925Z" fill="#1f915f" opacity="0.7"/>
  </g>
</svg>
