<svg xmlns="http://www.w3.org/2000/svg" width="19.416" height="19.427" viewBox="0 0 19.416 19.427">
  <g id="Group_43" data-name="Group 43" transform="translate(-1829.292 -2141.287)">
    <path id="Path_52" data-name="Path 52" d="M1839.866,2145.146a1.387,1.387,0,0,0-2.151.285l-1.013,1.63,1.843,1.735a.347.347,0,0,1-.472.507l-1.735-1.628-1.929,3.1,2.082,2.082a.349.349,0,1,1-.493.493l-1.96-1.961-2.967,4.722.892.889a.348.348,0,1,1-.493.492l-.774-.777-1.21,1.947a1.353,1.353,0,0,0,1.863,1.852l4.718-2.921-1.127-1.128a.348.348,0,1,1,.492-.492l1.242,1.242,3.886-2.429-1.8-1.8a.348.348,0,1,1,.492-.492l1.915,1.918,2.817-1.734-2.449-2.45a.349.349,0,0,1,.493-.493l2.56,2.564a1.387,1.387,0,0,0,.274-2.14Zm-5.474,10.267a.349.349,0,0,1-.493,0l-.347-.347a.349.349,0,0,1,.493-.493l.347.347a.349.349,0,0,1,0,.493Zm5.905-4.521-.007.01a.347.347,0,0,1-.489.018l-.371-.348a.346.346,0,0,1,.471-.506l.372.347A.348.348,0,0,1,1840.3,2150.892Z" fill="#29c17e"/>
    <path id="Path_53" data-name="Path 53" d="M1848.412,2145.726a2.421,2.421,0,0,0-1.211-.594.347.347,0,0,1-.184-.572c.406-.448.992-1.291.347-1.922s-1.457-.038-1.9.385a.347.347,0,0,1-.559-.2,2.377,2.377,0,0,0-.59-1.21,1.107,1.107,0,0,0-1.565,0c-.4.4-.548,1.453-.416,2.9a3.2,3.2,0,0,1-.347,1.735l.6.6a5.326,5.326,0,0,0,.674-3.123.347.347,0,1,1,.693-.038,7.452,7.452,0,0,1-.159,2.047l1.387-1.405a.348.348,0,0,1,.493.492l-1.405,1.388a7.565,7.565,0,0,1,2.047-.156.348.348,0,1,1-.042.694,5.291,5.291,0,0,0-3.122.673l.649.652a3.2,3.2,0,0,1,1.776-.267,3.757,3.757,0,0,0,2.717-.43,1.144,1.144,0,0,0,.121-1.651Z" fill="#29c17e"/>
  </g>
</svg>
