<svg xmlns="http://www.w3.org/2000/svg" width="24" height="24" viewBox="0 0 24 24">
  <g id="Group_36" data-name="Group 36" transform="translate(-1743 -1912)">
    <path id="Path_31" data-name="Path 31" d="M1743,1912h24v24h-24Z" fill="none"/>
    <path id="Path_32" data-name="Path 32" d="M1759.5,1915a5.89,5.89,0,0,1-9,0,5.447,5.447,0,0,0-5.5,5.5c0,3.78,3.4,6.86,8.55,11.54l1.45,1.31,1.45-1.32c5.15-4.67,8.55-7.75,8.55-11.53A5.447,5.447,0,0,0,1759.5,1915Zm-4.4,15.55-.1.1-.1-.1c-4.76-4.31-7.9-7.16-7.9-10.05a3.418,3.418,0,0,1,3.5-3.5,3.909,3.909,0,0,1,3.57,2.36h1.87a3.885,3.885,0,0,1,3.56-2.36,3.418,3.418,0,0,1,3.5,3.5C1763,1923.39,1759.86,1926.24,1755.1,1930.55Z" fill="#1f915f" opacity="0.7"/>
  </g>
</svg>
