<svg xmlns="http://www.w3.org/2000/svg" width="24" height="24" viewBox="0 0 24 24">
  <g id="Group_37" data-name="Group 37" transform="translate(-1833 -1912)">
    <path id="Path_33" data-name="Path 33" d="M1833,1912h24v24h-24Z" fill="none"/>
    <path id="Path_34" data-name="Path 34" d="M1845,1914a10,10,0,1,0,10,10A10,10,0,0,0,1845,1914Zm-4.93,16.28c.43-.9,3.05-1.78,4.93-1.78s4.51.88,4.93,1.78a7.926,7.926,0,0,1-9.86,0Zm11.29-1.45c-1.43-1.74-4.9-2.33-6.36-2.33s-4.93.59-6.36,2.33a8,8,0,1,1,12.72,0ZM1845,1918a3.5,3.5,0,1,0,3.5,3.5A3.491,3.491,0,0,0,1845,1918Zm0,5a1.5,1.5,0,1,1,1.5-1.5A1.5,1.5,0,0,1,1845,1923Z" fill="#1f915f" opacity="0.7"/>
  </g>
</svg>
