<svg xmlns="http://www.w3.org/2000/svg" width="70" height="70" viewBox="0 0 70 70">
  <g id="Group_2787" data-name="Group 2787" transform="translate(-102 -174)">
    <circle id="Ellipse_10" data-name="Ellipse 10" cx="35" cy="35" r="35" transform="translate(102 174)" fill="#bef1c9" opacity="0.3"/>
    <g id="Group_40" data-name="Group 40" transform="translate(-1530 -1820)">
      <path id="Path_41" data-name="Path 41" d="M1662.4,2034.4a1.8,1.8,0,1,0,1.8,1.8A1.8,1.8,0,0,0,1662.4,2034.4ZM1657,2020v1.8h1.8l3.24,6.831-1.215,2.205a1.741,1.741,0,0,0-.225.864,1.805,1.805,0,0,0,1.8,1.8h10.8v-1.8h-10.422a.223.223,0,0,1-.225-.225l.027-.108.81-1.467h6.7a1.792,1.792,0,0,0,1.575-.927l3.222-5.841a.879.879,0,0,0,.108-.432.9.9,0,0,0-.9-.9h-13.311l-.846-1.8Zm14.4,14.4a1.8,1.8,0,1,0,1.8,1.8A1.8,1.8,0,0,0,1671.4,2034.4Z" fill="#29c17e"/>
      <path id="Path_42" data-name="Path 42" d="M1655,2017h24v24h-24Z" fill="none"/>
    </g>
  </g>
</svg>
