<svg xmlns="http://www.w3.org/2000/svg" width="17.982" height="18" viewBox="0 0 17.982 18">
  <g id="Group_47" data-name="Group 47" transform="translate(-1658.009 -2142)">
    <path id="Path_61" data-name="Path 61" d="M1674.6,2150.1a4.747,4.747,0,0,0-6.714-6.713l-3.913,3.913,4.443,4.444a5.2,5.2,0,0,1,5.423-.814Z" fill="#29c17e"/>
    <path id="Path_62" data-name="Path 62" d="M1667.678,2152.5l-4.45-4.45-3.831,3.835a4.772,4.772,0,0,0,6.749,6.748l.776-.78a5.19,5.19,0,0,1,.756-5.353Z" fill="#29c17e"/>
    <path id="Path_63" data-name="Path 63" d="M1667.552,2155.781a4.206,4.206,0,0,0,3.692,4.166v-8.332A4.206,4.206,0,0,0,1667.552,2155.781Z" fill="#29c17e"/>
    <path id="Path_64" data-name="Path 64" d="M1672.3,2151.615v8.332a4.2,4.2,0,0,0,0-8.332Z" fill="#29c17e"/>
  </g>
</svg>
