<svg xmlns="http://www.w3.org/2000/svg" width="70" height="70" viewBox="0 0 70 70">
  <g id="Group_2793" data-name="Group 2793" transform="translate(-274 -418)">
    <circle id="Ellipse_20" data-name="Ellipse 20" cx="35" cy="35" r="35" transform="translate(274 418)" fill="#bef1c9" opacity="0.3"/>
    <path id="Path_65" data-name="Path 65" d="M1846.271,2270.924c-2-2.848-4.456-2.22-6.079-1.8-.171.044-.338.086-.5.123a5.423,5.423,0,0,1,2.844-4.141l-.676-1.116a7.816,7.816,0,0,0-2.186,1.909,3.978,3.978,0,0,0-.97-1.651,5,5,0,0,0-3.749-1.243l-.634.009-.009.634a5,5,0,0,0,1.243,3.748,4.551,4.551,0,0,0,2.915,1.213c-.04.214-.07.432-.091.656-.181-.04-.375-.09-.574-.141-1.624-.416-4.077-1.044-6.079,1.8a6.842,6.842,0,0,0-.836,5.328c.484,2.509,1.939,5.111,3.385,6.052a4.226,4.226,0,0,0,4.137.281,1.06,1.06,0,0,1,1.17,0,5.462,5.462,0,0,0,1.92.415,3.987,3.987,0,0,0,2.217-.7c1.446-.941,2.9-3.543,3.385-6.052A6.842,6.842,0,0,0,1846.271,2270.924Z" transform="translate(-1530 -1820)" fill="#29c17e"/>
  </g>
</svg>
