<svg xmlns="http://www.w3.org/2000/svg" width="24" height="24" viewBox="0 0 24 24">
  <g id="Group_31" data-name="Group 31" transform="translate(-1856 -1860)">
    <path id="Path_26" data-name="Path 26" d="M1856,1860h24v24h-24Z" fill="none"/>
    <path id="Path_27" data-name="Path 27" d="M1868,1882a2.006,2.006,0,0,0,2-2h-4A2.006,2.006,0,0,0,1868,1882Zm6-6v-5c0-3.07-1.63-5.64-4.5-6.32V1864a1.5,1.5,0,0,0-3,0v.68c-2.86.68-4.5,3.24-4.5,6.32v5l-2,2v1h16v-1Zm-2,1h-8v-6c0-2.48,1.51-4.5,4-4.5s4,2.02,4,4.5Z" fill="#fff"/>
  </g>
</svg>
