<svg xmlns="http://www.w3.org/2000/svg" width="21.185" height="20" viewBox="0 0 21.185 20">
  <g id="Group_45" data-name="Group 45" transform="translate(-1656.407 -2263)">
    <path id="Path_57" data-name="Path 57" d="M1677.444,2264.4c-1.842-1.842-5.3-1.842-8.586-.153a6,6,0,0,0,1.791,4.639,6.124,6.124,0,0,0,3.594,1.767C1676.741,2267.638,1678.055,2265.011,1677.444,2264.4Zm-3.472,1.163a.723.723,0,1,1,0-1.023A.726.726,0,0,1,1673.972,2265.564Z" fill="#29c17e"/>
    <path id="Path_58" data-name="Path 58" d="M1667.667,2264.939c-.242.16-.482.325-.718.5l-.565-.3a1.273,1.273,0,0,0-1.486.224l-3.96,3.961a1.272,1.272,0,0,0,.312,2.022l.9.472a20.114,20.114,0,0,0-1.523,5.456l-3.91,1.344a.458.458,0,0,0-.046.847l1.706.8a1.6,1.6,0,0,1,.76.759l.8,1.705a.457.457,0,0,0,.845-.046l1.348-3.917a20.446,20.446,0,0,0,7.786-3.818l.309.956a.521.521,0,0,0,.864.2l.332-.332a1.494,1.494,0,0,0,.434-.952l.118-1.681c.482-.487.941-.974,1.374-1.456a7.35,7.35,0,0,1-3.532-1.977A7.25,7.25,0,0,1,1667.667,2264.939Z" fill="#29c17e"/>
  </g>
</svg>
