<svg xmlns="http://www.w3.org/2000/svg" width="19.993" height="18" viewBox="0 0 19.993 18">
  <g id="Group_34" data-name="Group 34" transform="translate(-1565.003 -1915)">
    <g id="Group_33" data-name="Group 33">
      <path id="Path_28" data-name="Path 28" d="M1584.9,1920.89l-1.05-4.37a1.964,1.964,0,0,0-1.91-1.52h-13.89a1.964,1.964,0,0,0-1.9,1.52l-1.05,4.37a3.375,3.375,0,0,0,.62,2.88,3.83,3.83,0,0,0,.28.29V1931a2.006,2.006,0,0,0,2,2h14a2.006,2.006,0,0,0,2-2v-6.94a3.717,3.717,0,0,0,.28-.28A3.364,3.364,0,0,0,1584.9,1920.89Zm-2.99-3.9,1.05,4.37a1.356,1.356,0,0,1-.25,1.17,1.174,1.174,0,0,1-.94.47,1.25,1.25,0,0,1-1.21-1.14l-.58-4.86Zm-5.91.01h1.96l.54,4.52a1.344,1.344,0,0,1-.33,1.07,1.192,1.192,0,0,1-.95.41,1.272,1.272,0,0,1-1.22-1.31Zm-4.51,4.52.55-4.52H1574v4.69a1.285,1.285,0,0,1-1.29,1.31,1.2,1.2,0,0,1-.89-.41A1.42,1.42,0,0,1,1571.488,1921.52Zm-4.45-.16,1.01-4.36h1.97l-.58,4.86a1.257,1.257,0,0,1-1.21,1.14,1.151,1.151,0,0,1-.93-.47A1.322,1.322,0,0,1,1567.038,1921.36Zm.96,9.64v-6.03a1.806,1.806,0,0,0,.23.03,3.129,3.129,0,0,0,2.24-.95,3.216,3.216,0,0,0,2.31.95,3.171,3.171,0,0,0,2.23-.93,3.277,3.277,0,0,0,2.29.93,3.175,3.175,0,0,0,2.24-.95,3.129,3.129,0,0,0,2.24.95,1.81,1.81,0,0,0,.23-.03V1931Z" fill="#fff"/>
    </g>
  </g>
</svg>
