<svg xmlns="http://www.w3.org/2000/svg" width="24" height="24" viewBox="0 0 24 24">
  <g id="Group_39" data-name="Group 39" transform="translate(-1827 -2017)">
    <path id="Path_39" data-name="Path 39" d="M1843.96,2037.995h1.359a1.351,1.351,0,0,0,1.334-1.195l1.351-13.49h-4.093v-3.315H1842.3v3.315h-4.068l.245,1.916a8.379,8.379,0,0,1,3.495,1.85,5.637,5.637,0,0,1,1.989,4.33Zm-13.964-.818v-.811h12.3v.811a.823.823,0,0,1-.827.818h-10.649A.822.822,0,0,1,1830,2037.177Zm12.3-5.73c0-6.549-12.3-6.549-12.3,0Zm-12.287,1.645h12.279v1.637h-12.279Z" fill="#29c17e"/>
    <path id="Path_40" data-name="Path 40" d="M1827,2017h24v24h-24Z" fill="none"/>
  </g>
</svg>
