<svg aria-roledescription="er" role="graphics-document document" viewBox="0 0 201.06234741210938 1055.078125" height="1055.078125" xmlns="http://www.w3.org/2000/svg" width="201.06234741210938" id="tmpMermaidElement6064"><style>svg {background: white;}#tmpMermaidElement6064{font-family:"trebuchet ms",verdana,arial,sans-serif;font-size:16px;fill:#333;}#tmpMermaidElement6064 .error-icon{fill:#552222;}#tmpMermaidElement6064 .error-text{fill:#552222;stroke:#552222;}#tmpMermaidElement6064 .edge-thickness-normal{stroke-width:2px;}#tmpMermaidElement6064 .edge-thickness-thick{stroke-width:3.5px;}#tmpMermaidElement6064 .edge-pattern-solid{stroke-dasharray:0;}#tmpMermaidElement6064 .edge-pattern-dashed{stroke-dasharray:3;}#tmpMermaidElement6064 .edge-pattern-dotted{stroke-dasharray:2;}#tmpMermaidElement6064 .marker{fill:#333333;stroke:#333333;}#tmpMermaidElement6064 .marker.cross{stroke:#333333;}#tmpMermaidElement6064 svg{font-family:"trebuchet ms",verdana,arial,sans-serif;font-size:16px;}#tmpMermaidElement6064 .entityBox{fill:#ECECFF;stroke:#9370DB;}#tmpMermaidElement6064 .attributeBoxOdd{fill:#ffffff;stroke:#9370DB;}#tmpMermaidElement6064 .attributeBoxEven{fill:#f2f2f2;stroke:#9370DB;}#tmpMermaidElement6064 .relationshipLabelBox{fill:hsl(80, 100%, 96.2745098039%);opacity:0.7;background-color:hsl(80, 100%, 96.2745098039%);}#tmpMermaidElement6064 .relationshipLabelBox rect{opacity:0.5;}#tmpMermaidElement6064 .relationshipLine{stroke:#333333;}#tmpMermaidElement6064 .entityTitleText{text-anchor:middle;font-size:18px;fill:#333;}#tmpMermaidElement6064 #MD_PARENT_START{fill:#f5f5f5!important;stroke:#333333!important;stroke-width:1;}#tmpMermaidElement6064 #MD_PARENT_END{fill:#f5f5f5!important;stroke:#333333!important;stroke-width:1;}#tmpMermaidElement6064 :root{--mermaid-font-family:"trebuchet ms",verdana,arial,sans-serif;}</style><g></g><defs><marker orient="auto" markerHeight="240" markerWidth="190" refY="7" refX="0" id="MD_PARENT_START"><path d="M 18,7 L9,13 L1,7 L9,1 Z"></path></marker></defs><defs><marker orient="auto" markerHeight="28" markerWidth="20" refY="7" refX="19" id="MD_PARENT_END"><path d="M 18,7 L9,13 L1,7 L9,1 Z"></path></marker></defs><defs><marker orient="auto" markerHeight="18" markerWidth="18" refY="9" refX="0" id="ONLY_ONE_START"><path d="M9,0 L9,18 M15,0 L15,18" fill="none" stroke="gray"></path></marker></defs><defs><marker orient="auto" markerHeight="18" markerWidth="18" refY="9" refX="18" id="ONLY_ONE_END"><path d="M3,0 L3,18 M9,0 L9,18" fill="none" stroke="gray"></path></marker></defs><defs><marker orient="auto" markerHeight="18" markerWidth="30" refY="9" refX="0" id="ZERO_OR_ONE_START"><circle r="6" cy="9" cx="21" fill="white" stroke="gray"></circle><path d="M9,0 L9,18" fill="none" stroke="gray"></path></marker></defs><defs><marker orient="auto" markerHeight="18" markerWidth="30" refY="9" refX="30" id="ZERO_OR_ONE_END"><circle r="6" cy="9" cx="9" fill="white" stroke="gray"></circle><path d="M21,0 L21,18" fill="none" stroke="gray"></path></marker></defs><defs><marker orient="auto" markerHeight="36" markerWidth="45" refY="18" refX="18" id="ONE_OR_MORE_START"><path d="M0,18 Q 18,0 36,18 Q 18,36 0,18 M42,9 L42,27" fill="none" stroke="gray"></path></marker></defs><defs><marker orient="auto" markerHeight="36" markerWidth="45" refY="18" refX="27" id="ONE_OR_MORE_END"><path d="M3,9 L3,27 M9,18 Q27,0 45,18 Q27,36 9,18" fill="none" stroke="gray"></path></marker></defs><defs><marker orient="auto" markerHeight="36" markerWidth="57" refY="18" refX="18" id="ZERO_OR_MORE_START"><circle r="6" cy="18" cx="48" fill="white" stroke="gray"></circle><path d="M0,18 Q18,0 36,18 Q18,36 0,18" fill="none" stroke="gray"></path></marker></defs><defs><marker orient="auto" markerHeight="36" markerWidth="57" refY="18" refX="39" id="ZERO_OR_MORE_END"><circle r="6" cy="18" cx="9" fill="white" stroke="gray"></circle><path d="M21,18 Q39,0 57,18 Q39,36 21,18" fill="none" stroke="gray"></path></marker></defs><path style="stroke: gray; fill: none;" marker-start="url(#ONLY_ONE_START)" marker-end="url(#ZERO_OR_MORE_END)" d="M100.531,143.016L100.531,151.349C100.531,159.682,100.531,176.349,100.531,193.016C100.531,209.682,100.531,226.349,100.531,234.682L100.531,243.016" class="er relationshipLine"></path><path style="stroke: gray; fill: none;" marker-start="url(#ONLY_ONE_START)" marker-end="url(#ZERO_OR_MORE_END)" d="M100.531,342.031L100.531,350.365C100.531,358.698,100.531,375.365,100.531,392.031C100.531,408.698,100.531,425.365,100.531,433.698L100.531,442.031" class="er relationshipLine"></path><path style="stroke: gray; fill: none;" marker-start="url(#ONE_OR_MORE_START)" marker-end="url(#ONLY_ONE_END)" d="M100.531,565.047L100.531,573.38C100.531,581.714,100.531,598.38,100.531,615.047C100.531,631.714,100.531,648.38,100.531,656.714L100.531,665.047" class="er relationshipLine"></path><path style="stroke: gray; fill: none;" marker-start="url(#ONLY_ONE_START)" marker-end="url(#ZERO_OR_MORE_END)" d="M100.531,836.063L100.531,844.396C100.531,852.729,100.531,869.396,100.531,886.063C100.531,902.729,100.531,919.396,100.531,927.729L100.531,936.063" class="er relationshipLine"></path><g transform="translate(35.863250732421875,20 )" id="entity-USERS-1e82e395-936c-57a7-8ba9-b08f03574b93"><rect height="123.015625" width="129.33584594726562" y="0" x="0" class="er entityBox"></rect><text style="dominant-baseline: middle; text-anchor: middle; font-size: 12px;" transform="translate(64.66792297363281,13.5078125)" y="0" x="0" id="text-entity-USERS-1e82e395-936c-57a7-8ba9-b08f03574b93" class="er entityLabel">USERS</text><rect height="24" width="46.701629638671875" y="27.015625" x="0" class="er attributeBoxOdd"></rect><text style="dominant-baseline: middle; font-size: 10.2px;" transform="translate(5,39.015625)" y="0" x="0" id="text-entity-USERS-1e82e395-936c-57a7-8ba9-b08f03574b93-attr-1-type" class="er entityLabel">int</text><rect height="24" width="59.50579833984375" y="27.015625" x="46.701629638671875" class="er attributeBoxOdd"></rect><text style="dominant-baseline: middle; font-size: 10.2px;" transform="translate(51.701629638671875,39.015625)" y="0" x="0" id="text-entity-USERS-1e82e395-936c-57a7-8ba9-b08f03574b93-attr-1-name" class="er entityLabel">UserID</text><rect height="24" width="23.12841796875" y="27.015625" x="106.20742797851562" class="er attributeBoxOdd"></rect><text style="dominant-baseline: middle; font-size: 10.2px;" transform="translate(111.20742797851562,39.015625)" y="0" x="0" id="text-entity-USERS-1e82e395-936c-57a7-8ba9-b08f03574b93-attr-1-key" class="er entityLabel">PK</text><rect height="24" width="46.701629638671875" y="51.015625" x="0" class="er attributeBoxEven"></rect><text style="dominant-baseline: middle; font-size: 10.2px;" transform="translate(5,63.015625)" y="0" x="0" id="text-entity-USERS-1e82e395-936c-57a7-8ba9-b08f03574b93-attr-2-type" class="er entityLabel">varchar</text><rect height="24" width="59.50579833984375" y="51.015625" x="46.701629638671875" class="er attributeBoxEven"></rect><text style="dominant-baseline: middle; font-size: 10.2px;" transform="translate(51.701629638671875,63.015625)" y="0" x="0" id="text-entity-USERS-1e82e395-936c-57a7-8ba9-b08f03574b93-attr-2-name" class="er entityLabel">Username</text><rect height="24" width="23.12841796875" y="51.015625" x="106.20742797851562" class="er attributeBoxEven"></rect><text style="dominant-baseline: middle; font-size: 10.2px;" transform="translate(111.20742797851562,63.015625)" y="0" x="0" id="text-entity-USERS-1e82e395-936c-57a7-8ba9-b08f03574b93-attr-2-key" class="er entityLabel"></text><rect height="24" width="46.701629638671875" y="75.015625" x="0" class="er attributeBoxOdd"></rect><text style="dominant-baseline: middle; font-size: 10.2px;" transform="translate(5,87.015625)" y="0" x="0" id="text-entity-USERS-1e82e395-936c-57a7-8ba9-b08f03574b93-attr-3-type" class="er entityLabel">varchar</text><rect height="24" width="59.50579833984375" y="75.015625" x="46.701629638671875" class="er attributeBoxOdd"></rect><text style="dominant-baseline: middle; font-size: 10.2px;" transform="translate(51.701629638671875,87.015625)" y="0" x="0" id="text-entity-USERS-1e82e395-936c-57a7-8ba9-b08f03574b93-attr-3-name" class="er entityLabel">Password</text><rect height="24" width="23.12841796875" y="75.015625" x="106.20742797851562" class="er attributeBoxOdd"></rect><text style="dominant-baseline: middle; font-size: 10.2px;" transform="translate(111.20742797851562,87.015625)" y="0" x="0" id="text-entity-USERS-1e82e395-936c-57a7-8ba9-b08f03574b93-attr-3-key" class="er entityLabel"></text><rect height="24" width="46.701629638671875" y="99.015625" x="0" class="er attributeBoxEven"></rect><text style="dominant-baseline: middle; font-size: 10.2px;" transform="translate(5,111.015625)" y="0" x="0" id="text-entity-USERS-1e82e395-936c-57a7-8ba9-b08f03574b93-attr-4-type" class="er entityLabel">varchar</text><rect height="24" width="59.50579833984375" y="99.015625" x="46.701629638671875" class="er attributeBoxEven"></rect><text style="dominant-baseline: middle; font-size: 10.2px;" transform="translate(51.701629638671875,111.015625)" y="0" x="0" id="text-entity-USERS-1e82e395-936c-57a7-8ba9-b08f03574b93-attr-4-name" class="er entityLabel">Email</text><rect height="24" width="23.12841796875" y="99.015625" x="106.20742797851562" class="er attributeBoxEven"></rect><text style="dominant-baseline: middle; font-size: 10.2px;" transform="translate(111.20742797851562,111.015625)" y="0" x="0" id="text-entity-USERS-1e82e395-936c-57a7-8ba9-b08f03574b93-attr-4-key" class="er entityLabel"></text></g><g transform="translate(38.66886901855469,243.015625 )" id="entity-SHOPPINGCART-b9b39ef4-9700-5b52-a2d7-232b56cd5f89"><rect height="99.015625" width="123.724609375" y="0" x="0" class="er entityBox"></rect><text style="dominant-baseline: middle; text-anchor: middle; font-size: 12px;" transform="translate(61.8623046875,13.5078125)" y="0" x="0" id="text-entity-SHOPPINGCART-b9b39ef4-9700-5b52-a2d7-232b56cd5f89" class="er entityLabel">SHOPPING-CART</text><rect height="24" width="35.608642578125" y="27.015625" x="0" class="er attributeBoxOdd"></rect><text style="dominant-baseline: middle; font-size: 10.2px;" transform="translate(5,39.015625)" y="0" x="0" id="text-entity-SHOPPINGCART-b9b39ef4-9700-5b52-a2d7-232b56cd5f89-attr-1-type" class="er entityLabel">int</text><rect height="24" width="61.167236328125" y="27.015625" x="35.608642578125" class="er attributeBoxOdd"></rect><text style="dominant-baseline: middle; font-size: 10.2px;" transform="translate(40.608642578125,39.015625)" y="0" x="0" id="text-entity-SHOPPINGCART-b9b39ef4-9700-5b52-a2d7-232b56cd5f89-attr-1-name" class="er entityLabel">CartID</text><rect height="24" width="26.94873046875" y="27.015625" x="96.77587890625" class="er attributeBoxOdd"></rect><text style="dominant-baseline: middle; font-size: 10.2px;" transform="translate(101.77587890625,39.015625)" y="0" x="0" id="text-entity-SHOPPINGCART-b9b39ef4-9700-5b52-a2d7-232b56cd5f89-attr-1-key" class="er entityLabel">PK</text><rect height="24" width="35.608642578125" y="51.015625" x="0" class="er attributeBoxEven"></rect><text style="dominant-baseline: middle; font-size: 10.2px;" transform="translate(5,63.015625)" y="0" x="0" id="text-entity-SHOPPINGCART-b9b39ef4-9700-5b52-a2d7-232b56cd5f89-attr-2-type" class="er entityLabel">int</text><rect height="24" width="61.167236328125" y="51.015625" x="35.608642578125" class="er attributeBoxEven"></rect><text style="dominant-baseline: middle; font-size: 10.2px;" transform="translate(40.608642578125,63.015625)" y="0" x="0" id="text-entity-SHOPPINGCART-b9b39ef4-9700-5b52-a2d7-232b56cd5f89-attr-2-name" class="er entityLabel">UserID</text><rect height="24" width="26.94873046875" y="51.015625" x="96.77587890625" class="er attributeBoxEven"></rect><text style="dominant-baseline: middle; font-size: 10.2px;" transform="translate(101.77587890625,63.015625)" y="0" x="0" id="text-entity-SHOPPINGCART-b9b39ef4-9700-5b52-a2d7-232b56cd5f89-attr-2-key" class="er entityLabel">FK</text><rect height="24" width="35.608642578125" y="75.015625" x="0" class="er attributeBoxOdd"></rect><text style="dominant-baseline: middle; font-size: 10.2px;" transform="translate(5,87.015625)" y="0" x="0" id="text-entity-SHOPPINGCART-b9b39ef4-9700-5b52-a2d7-232b56cd5f89-attr-3-type" class="er entityLabel">float</text><rect height="24" width="61.167236328125" y="75.015625" x="35.608642578125" class="er attributeBoxOdd"></rect><text style="dominant-baseline: middle; font-size: 10.2px;" transform="translate(40.608642578125,87.015625)" y="0" x="0" id="text-entity-SHOPPINGCART-b9b39ef4-9700-5b52-a2d7-232b56cd5f89-attr-3-name" class="er entityLabel">TotalPrice</text><rect height="24" width="26.94873046875" y="75.015625" x="96.77587890625" class="er attributeBoxOdd"></rect><text style="dominant-baseline: middle; font-size: 10.2px;" transform="translate(101.77587890625,87.015625)" y="0" x="0" id="text-entity-SHOPPINGCART-b9b39ef4-9700-5b52-a2d7-232b56cd5f89-attr-3-key" class="er entityLabel"></text></g><g transform="translate(48.72906494140625,442.03125 )" id="entity-CARTITEMS-37300e15-4ad7-57d9-99c2-7145e2166661"><rect height="123.015625" width="103.60421752929688" y="0" x="0" class="er entityBox"></rect><text style="dominant-baseline: middle; text-anchor: middle; font-size: 12px;" transform="translate(51.80210876464844,13.5078125)" y="0" x="0" id="text-entity-CARTITEMS-37300e15-4ad7-57d9-99c2-7145e2166661" class="er entityLabel">CART_ITEMS</text><rect height="24" width="22.819549560546875" y="27.015625" x="0" class="er attributeBoxOdd"></rect><text style="dominant-baseline: middle; font-size: 10.2px;" transform="translate(5,39.015625)" y="0" x="0" id="text-entity-CARTITEMS-37300e15-4ad7-57d9-99c2-7145e2166661-attr-1-type" class="er entityLabel">int</text><rect height="24" width="57.65625" y="27.015625" x="22.819549560546875" class="er attributeBoxOdd"></rect><text style="dominant-baseline: middle; font-size: 10.2px;" transform="translate(27.819549560546875,39.015625)" y="0" x="0" id="text-entity-CARTITEMS-37300e15-4ad7-57d9-99c2-7145e2166661-attr-1-name" class="er entityLabel">ItemID</text><rect height="24" width="23.12841796875" y="27.015625" x="80.47579956054688" class="er attributeBoxOdd"></rect><text style="dominant-baseline: middle; font-size: 10.2px;" transform="translate(85.47579956054688,39.015625)" y="0" x="0" id="text-entity-CARTITEMS-37300e15-4ad7-57d9-99c2-7145e2166661-attr-1-key" class="er entityLabel">PK</text><rect height="24" width="22.819549560546875" y="51.015625" x="0" class="er attributeBoxEven"></rect><text style="dominant-baseline: middle; font-size: 10.2px;" transform="translate(5,63.015625)" y="0" x="0" id="text-entity-CARTITEMS-37300e15-4ad7-57d9-99c2-7145e2166661-attr-2-type" class="er entityLabel">int</text><rect height="24" width="57.65625" y="51.015625" x="22.819549560546875" class="er attributeBoxEven"></rect><text style="dominant-baseline: middle; font-size: 10.2px;" transform="translate(27.819549560546875,63.015625)" y="0" x="0" id="text-entity-CARTITEMS-37300e15-4ad7-57d9-99c2-7145e2166661-attr-2-name" class="er entityLabel">CartID</text><rect height="24" width="23.12841796875" y="51.015625" x="80.47579956054688" class="er attributeBoxEven"></rect><text style="dominant-baseline: middle; font-size: 10.2px;" transform="translate(85.47579956054688,63.015625)" y="0" x="0" id="text-entity-CARTITEMS-37300e15-4ad7-57d9-99c2-7145e2166661-attr-2-key" class="er entityLabel">FK</text><rect height="24" width="22.819549560546875" y="75.015625" x="0" class="er attributeBoxOdd"></rect><text style="dominant-baseline: middle; font-size: 10.2px;" transform="translate(5,87.015625)" y="0" x="0" id="text-entity-CARTITEMS-37300e15-4ad7-57d9-99c2-7145e2166661-attr-3-type" class="er entityLabel">int</text><rect height="24" width="57.65625" y="75.015625" x="22.819549560546875" class="er attributeBoxOdd"></rect><text style="dominant-baseline: middle; font-size: 10.2px;" transform="translate(27.819549560546875,87.015625)" y="0" x="0" id="text-entity-CARTITEMS-37300e15-4ad7-57d9-99c2-7145e2166661-attr-3-name" class="er entityLabel">ProductID</text><rect height="24" width="23.12841796875" y="75.015625" x="80.47579956054688" class="er attributeBoxOdd"></rect><text style="dominant-baseline: middle; font-size: 10.2px;" transform="translate(85.47579956054688,87.015625)" y="0" x="0" id="text-entity-CARTITEMS-37300e15-4ad7-57d9-99c2-7145e2166661-attr-3-key" class="er entityLabel">FK</text><rect height="24" width="22.819549560546875" y="99.015625" x="0" class="er attributeBoxEven"></rect><text style="dominant-baseline: middle; font-size: 10.2px;" transform="translate(5,111.015625)" y="0" x="0" id="text-entity-CARTITEMS-37300e15-4ad7-57d9-99c2-7145e2166661-attr-4-type" class="er entityLabel">int</text><rect height="24" width="57.65625" y="99.015625" x="22.819549560546875" class="er attributeBoxEven"></rect><text style="dominant-baseline: middle; font-size: 10.2px;" transform="translate(27.819549560546875,111.015625)" y="0" x="0" id="text-entity-CARTITEMS-37300e15-4ad7-57d9-99c2-7145e2166661-attr-4-name" class="er entityLabel">Quantity</text><rect height="24" width="23.12841796875" y="99.015625" x="80.47579956054688" class="er attributeBoxEven"></rect><text style="dominant-baseline: middle; font-size: 10.2px;" transform="translate(85.47579956054688,111.015625)" y="0" x="0" id="text-entity-CARTITEMS-37300e15-4ad7-57d9-99c2-7145e2166661-attr-4-key" class="er entityLabel"></text></g><g transform="translate(20,665.046875 )" id="entity-PRODUCTS-362c442a-463b-592a-aa0d-86bc5b21c2f4"><rect height="171.015625" width="161.06234741210938" y="0" x="0" class="er entityBox"></rect><text style="dominant-baseline: middle; text-anchor: middle; font-size: 12px;" transform="translate(80.53117370605469,13.5078125)" y="0" x="0" id="text-entity-PRODUCTS-362c442a-463b-592a-aa0d-86bc5b21c2f4" class="er entityLabel">PRODUCTS</text><rect height="24" width="46.701629638671875" y="27.015625" x="0" class="er attributeBoxOdd"></rect><text style="dominant-baseline: middle; font-size: 10.2px;" transform="translate(5,39.015625)" y="0" x="0" id="text-entity-PRODUCTS-362c442a-463b-592a-aa0d-86bc5b21c2f4-attr-1-type" class="er entityLabel">int</text><rect height="24" width="91.2322998046875" y="27.015625" x="46.701629638671875" class="er attributeBoxOdd"></rect><text style="dominant-baseline: middle; font-size: 10.2px;" transform="translate(51.701629638671875,39.015625)" y="0" x="0" id="text-entity-PRODUCTS-362c442a-463b-592a-aa0d-86bc5b21c2f4-attr-1-name" class="er entityLabel">ProductID</text><rect height="24" width="23.12841796875" y="27.015625" x="137.93392944335938" class="er attributeBoxOdd"></rect><text style="dominant-baseline: middle; font-size: 10.2px;" transform="translate(142.93392944335938,39.015625)" y="0" x="0" id="text-entity-PRODUCTS-362c442a-463b-592a-aa0d-86bc5b21c2f4-attr-1-key" class="er entityLabel">PK</text><rect height="24" width="46.701629638671875" y="51.015625" x="0" class="er attributeBoxEven"></rect><text style="dominant-baseline: middle; font-size: 10.2px;" transform="translate(5,63.015625)" y="0" x="0" id="text-entity-PRODUCTS-362c442a-463b-592a-aa0d-86bc5b21c2f4-attr-2-type" class="er entityLabel">varchar</text><rect height="24" width="91.2322998046875" y="51.015625" x="46.701629638671875" class="er attributeBoxEven"></rect><text style="dominant-baseline: middle; font-size: 10.2px;" transform="translate(51.701629638671875,63.015625)" y="0" x="0" id="text-entity-PRODUCTS-362c442a-463b-592a-aa0d-86bc5b21c2f4-attr-2-name" class="er entityLabel">Name</text><rect height="24" width="23.12841796875" y="51.015625" x="137.93392944335938" class="er attributeBoxEven"></rect><text style="dominant-baseline: middle; font-size: 10.2px;" transform="translate(142.93392944335938,63.015625)" y="0" x="0" id="text-entity-PRODUCTS-362c442a-463b-592a-aa0d-86bc5b21c2f4-attr-2-key" class="er entityLabel"></text><rect height="24" width="46.701629638671875" y="75.015625" x="0" class="er attributeBoxOdd"></rect><text style="dominant-baseline: middle; font-size: 10.2px;" transform="translate(5,87.015625)" y="0" x="0" id="text-entity-PRODUCTS-362c442a-463b-592a-aa0d-86bc5b21c2f4-attr-3-type" class="er entityLabel">varchar</text><rect height="24" width="91.2322998046875" y="75.015625" x="46.701629638671875" class="er attributeBoxOdd"></rect><text style="dominant-baseline: middle; font-size: 10.2px;" transform="translate(51.701629638671875,87.015625)" y="0" x="0" id="text-entity-PRODUCTS-362c442a-463b-592a-aa0d-86bc5b21c2f4-attr-3-name" class="er entityLabel">BrandName</text><rect height="24" width="23.12841796875" y="75.015625" x="137.93392944335938" class="er attributeBoxOdd"></rect><text style="dominant-baseline: middle; font-size: 10.2px;" transform="translate(142.93392944335938,87.015625)" y="0" x="0" id="text-entity-PRODUCTS-362c442a-463b-592a-aa0d-86bc5b21c2f4-attr-3-key" class="er entityLabel"></text><rect height="24" width="46.701629638671875" y="99.015625" x="0" class="er attributeBoxEven"></rect><text style="dominant-baseline: middle; font-size: 10.2px;" transform="translate(5,111.015625)" y="0" x="0" id="text-entity-PRODUCTS-362c442a-463b-592a-aa0d-86bc5b21c2f4-attr-4-type" class="er entityLabel">varchar</text><rect height="24" width="91.2322998046875" y="99.015625" x="46.701629638671875" class="er attributeBoxEven"></rect><text style="dominant-baseline: middle; font-size: 10.2px;" transform="translate(51.701629638671875,111.015625)" y="0" x="0" id="text-entity-PRODUCTS-362c442a-463b-592a-aa0d-86bc5b21c2f4-attr-4-name" class="er entityLabel">BrandNationality</text><rect height="24" width="23.12841796875" y="99.015625" x="137.93392944335938" class="er attributeBoxEven"></rect><text style="dominant-baseline: middle; font-size: 10.2px;" transform="translate(142.93392944335938,111.015625)" y="0" x="0" id="text-entity-PRODUCTS-362c442a-463b-592a-aa0d-86bc5b21c2f4-attr-4-key" class="er entityLabel"></text><rect height="24" width="46.701629638671875" y="123.015625" x="0" class="er attributeBoxOdd"></rect><text style="dominant-baseline: middle; font-size: 10.2px;" transform="translate(5,135.015625)" y="0" x="0" id="text-entity-PRODUCTS-362c442a-463b-592a-aa0d-86bc5b21c2f4-attr-5-type" class="er entityLabel">float</text><rect height="24" width="91.2322998046875" y="123.015625" x="46.701629638671875" class="er attributeBoxOdd"></rect><text style="dominant-baseline: middle; font-size: 10.2px;" transform="translate(51.701629638671875,135.015625)" y="0" x="0" id="text-entity-PRODUCTS-362c442a-463b-592a-aa0d-86bc5b21c2f4-attr-5-name" class="er entityLabel">Price</text><rect height="24" width="23.12841796875" y="123.015625" x="137.93392944335938" class="er attributeBoxOdd"></rect><text style="dominant-baseline: middle; font-size: 10.2px;" transform="translate(142.93392944335938,135.015625)" y="0" x="0" id="text-entity-PRODUCTS-362c442a-463b-592a-aa0d-86bc5b21c2f4-attr-5-key" class="er entityLabel"></text><rect height="24" width="46.701629638671875" y="147.015625" x="0" class="er attributeBoxEven"></rect><text style="dominant-baseline: middle; font-size: 10.2px;" transform="translate(5,159.015625)" y="0" x="0" id="text-entity-PRODUCTS-362c442a-463b-592a-aa0d-86bc5b21c2f4-attr-6-type" class="er entityLabel">int</text><rect height="24" width="91.2322998046875" y="147.015625" x="46.701629638671875" class="er attributeBoxEven"></rect><text style="dominant-baseline: middle; font-size: 10.2px;" transform="translate(51.701629638671875,159.015625)" y="0" x="0" id="text-entity-PRODUCTS-362c442a-463b-592a-aa0d-86bc5b21c2f4-attr-6-name" class="er entityLabel">StockQuantity</text><rect height="24" width="23.12841796875" y="147.015625" x="137.93392944335938" class="er attributeBoxEven"></rect><text style="dominant-baseline: middle; font-size: 10.2px;" transform="translate(142.93392944335938,159.015625)" y="0" x="0" id="text-entity-PRODUCTS-362c442a-463b-592a-aa0d-86bc5b21c2f4-attr-6-key" class="er entityLabel"></text></g><g transform="translate(34.44306945800781,936.0625 )" id="entity-BRANDS-30c8f3c6-e86f-5ef0-a753-57e1cdea07d2"><rect height="99.015625" width="132.17620849609375" y="0" x="0" class="er entityBox"></rect><text style="dominant-baseline: middle; text-anchor: middle; font-size: 12px;" transform="translate(66.08810424804688,13.5078125)" y="0" x="0" id="text-entity-BRANDS-30c8f3c6-e86f-5ef0-a753-57e1cdea07d2" class="er entityLabel">BRANDS</text><rect height="24" width="46.701629638671875" y="27.015625" x="0" class="er attributeBoxOdd"></rect><text style="dominant-baseline: middle; font-size: 10.2px;" transform="translate(5,39.015625)" y="0" x="0" id="text-entity-BRANDS-30c8f3c6-e86f-5ef0-a753-57e1cdea07d2-attr-1-type" class="er entityLabel">int</text><rect height="24" width="62.346160888671875" y="27.015625" x="46.701629638671875" class="er attributeBoxOdd"></rect><text style="dominant-baseline: middle; font-size: 10.2px;" transform="translate(51.701629638671875,39.015625)" y="0" x="0" id="text-entity-BRANDS-30c8f3c6-e86f-5ef0-a753-57e1cdea07d2-attr-1-name" class="er entityLabel">BrandID</text><rect height="24" width="23.12841796875" y="27.015625" x="109.04779052734375" class="er attributeBoxOdd"></rect><text style="dominant-baseline: middle; font-size: 10.2px;" transform="translate(114.04779052734375,39.015625)" y="0" x="0" id="text-entity-BRANDS-30c8f3c6-e86f-5ef0-a753-57e1cdea07d2-attr-1-key" class="er entityLabel">PK</text><rect height="24" width="46.701629638671875" y="51.015625" x="0" class="er attributeBoxEven"></rect><text style="dominant-baseline: middle; font-size: 10.2px;" transform="translate(5,63.015625)" y="0" x="0" id="text-entity-BRANDS-30c8f3c6-e86f-5ef0-a753-57e1cdea07d2-attr-2-type" class="er entityLabel">varchar</text><rect height="24" width="62.346160888671875" y="51.015625" x="46.701629638671875" class="er attributeBoxEven"></rect><text style="dominant-baseline: middle; font-size: 10.2px;" transform="translate(51.701629638671875,63.015625)" y="0" x="0" id="text-entity-BRANDS-30c8f3c6-e86f-5ef0-a753-57e1cdea07d2-attr-2-name" class="er entityLabel">Name</text><rect height="24" width="23.12841796875" y="51.015625" x="109.04779052734375" class="er attributeBoxEven"></rect><text style="dominant-baseline: middle; font-size: 10.2px;" transform="translate(114.04779052734375,63.015625)" y="0" x="0" id="text-entity-BRANDS-30c8f3c6-e86f-5ef0-a753-57e1cdea07d2-attr-2-key" class="er entityLabel"></text><rect height="24" width="46.701629638671875" y="75.015625" x="0" class="er attributeBoxOdd"></rect><text style="dominant-baseline: middle; font-size: 10.2px;" transform="translate(5,87.015625)" y="0" x="0" id="text-entity-BRANDS-30c8f3c6-e86f-5ef0-a753-57e1cdea07d2-attr-3-type" class="er entityLabel">varchar</text><rect height="24" width="62.346160888671875" y="75.015625" x="46.701629638671875" class="er attributeBoxOdd"></rect><text style="dominant-baseline: middle; font-size: 10.2px;" transform="translate(51.701629638671875,87.015625)" y="0" x="0" id="text-entity-BRANDS-30c8f3c6-e86f-5ef0-a753-57e1cdea07d2-attr-3-name" class="er entityLabel">Nationality</text><rect height="24" width="23.12841796875" y="75.015625" x="109.04779052734375" class="er attributeBoxOdd"></rect><text style="dominant-baseline: middle; font-size: 10.2px;" transform="translate(114.04779052734375,87.015625)" y="0" x="0" id="text-entity-BRANDS-30c8f3c6-e86f-5ef0-a753-57e1cdea07d2-attr-3-key" class="er entityLabel"></text></g><rect height="17.015625" width="20.02734375" y="184.50819396972656" x="90.51732635498047" class="er relationshipLabelBox"></rect><text style="text-anchor: middle; dominant-baseline: middle; font-size: 12px;" y="193.01600646972656" x="100.53099822998047" id="rel713" class="er relationshipLabel">has</text><rect height="17.015625" width="47.66015625" y="383.523193359375" x="76.70092010498047" class="er relationshipLabelBox"></rect><text style="text-anchor: middle; dominant-baseline: middle; font-size: 12px;" y="392.031005859375" x="100.53099822998047" id="rel714" class="er relationshipLabel">contains</text><rect height="17.015625" width="46.60546875" y="606.5391845703125" x="77.22826385498047" class="er relationshipLabelBox"></rect><text style="text-anchor: middle; dominant-baseline: middle; font-size: 12px;" y="615.0469970703125" x="100.53099822998047" id="rel715" class="er relationshipLabel">includes</text><rect height="17.015625" width="58.546875" y="877.55517578125" x="71.25756072998047" class="er relationshipLabelBox"></rect><text style="text-anchor: middle; dominant-baseline: middle; font-size: 12px;" y="886.06298828125" x="100.53099822998047" id="rel716" class="er relationshipLabel">belongs to</text></svg>