<svg xmlns="http://www.w3.org/2000/svg" width="140" height="130" viewBox="0 0 140 130">
  <g id="Group_2778" data-name="Group 2778" transform="translate(-180 -185)">
    <g id="Group_2777" data-name="Group 2777" transform="translate(70 25)">
      <path id="Path_251" data-name="Path 251" d="M116.88,246.61a23.491,23.491,0,0,1,0-33.22l46.51-46.51a23.491,23.491,0,0,1,33.22,0l46.51,46.51a23.491,23.491,0,0,1,0,33.22" fill="#54cd98"/>
      <g id="Group_172" data-name="Group 172">
        <g id="Group_171" data-name="Group 171">
          <rect id="Rectangle_138" data-name="Rectangle 138" width="120" height="120" rx="25" transform="translate(120 170)" fill="#fff"/>
        </g>
      </g>
      <path id="Path_252" data-name="Path 252" d="M201.572,250.643c-2.692,2.03-7.544-2.8-7.544-2.8-3.228-2.695-8.766-9.981-9.744-11.432s-3.7-1.382-3.7-1.382c-8.609-.553-9.063,4.7-9.063,4.7.474-8,10.009-4.028,21.107-12.716,12.427-9.727,5.963-27.011,5.963-27.011s-2.8,5.608-12.557,7.7-13.506,7.621-13.506,7.621c-.79-6.753.513-10.662.513-10.662a26.793,26.793,0,0,0-8.846.671c-4.7,1.185-4.422,6.674-4.422,6.674s-.119,34.436,0,40.122-1.343,7.464-1.343,7.464a49.807,49.807,0,0,0,9.793-.158c4.9-.632,4.384-6.516,4.384-6.516l-.158-11.571s2.646,3.712,6.634,8.886,6.477,8.954,12.7,9.694,7.671-4.353,7.671-4.353Z" fill="#29c17e"/>
    </g>
  </g>
</svg>
