<svg xmlns="http://www.w3.org/2000/svg" width="104.94" height="100" viewBox="0 0 104.94 100">
  <g id="Group_74" data-name="Group 74" transform="translate(-637.53 -2038.832)">
    <rect id="Rectangle_44" data-name="Rectangle 44" width="0.521" height="7.951" transform="translate(637.53 2088.299) rotate(-6.671)" fill="#99a0b0"/>
    <rect id="Rectangle_45" data-name="Rectangle 45" width="0.521" height="4.01" transform="translate(638.796 2099.131) rotate(-6.672)" fill="#99a0b0"/>
    <path id="Path_86" data-name="Path 86" d="M673.819,2072.137l-.615-1.725a5.575,5.575,0,0,0-5.9-3.664l-24.513,2.867a5.573,5.573,0,0,0-4.889,6.184l6.977,59.654a3.823,3.823,0,0,0,4.241,3.353l87.7-10.258a3.823,3.823,0,0,0,3.353-4.241l-6.032-51.568a3.822,3.822,0,0,0-4.241-3.353l-50.928,5.956A4.874,4.874,0,0,1,673.819,2072.137Z" fill="#99a0b0"/>
    <g id="Group_63" data-name="Group 63">
      <g id="Group_61" data-name="Group 61">
        <rect id="Rectangle_46" data-name="Rectangle 46" width="28.256" height="38.929" transform="translate(648.558 2051.717) rotate(-11.271)" fill="#99a0b0"/>
        <rect id="Rectangle_47" data-name="Rectangle 47" width="28.256" height="38.929" transform="translate(648.558 2051.717) rotate(-11.271)" fill="#fff" opacity="0.7"/>
      </g>
      <g id="Group_62" data-name="Group 62" opacity="0.4">
        <path id="Path_87" data-name="Path 87" d="M672.568,2055.383l-17.07,3.4a1.528,1.528,0,0,1-1.8-1.2h0a1.528,1.528,0,0,1,1.2-1.8l17.07-3.4a1.529,1.529,0,0,1,1.8,1.2h0A1.529,1.529,0,0,1,672.568,2055.383Z" fill="#99a0b0"/>
        <path id="Path_88" data-name="Path 88" d="M673.827,2061.7l-17.071,3.4a1.529,1.529,0,0,1-1.8-1.2h0a1.528,1.528,0,0,1,1.2-1.8l17.07-3.4a1.528,1.528,0,0,1,1.8,1.2h0A1.529,1.529,0,0,1,673.827,2061.7Z" fill="#99a0b0"/>
        <path id="Path_89" data-name="Path 89" d="M675.085,2068.008l-17.07,3.4a1.528,1.528,0,0,1-1.8-1.2h0a1.528,1.528,0,0,1,1.2-1.8l17.07-3.4a1.528,1.528,0,0,1,1.8,1.2h0A1.527,1.527,0,0,1,675.085,2068.008Z" fill="#99a0b0"/>
        <path id="Path_90" data-name="Path 90" d="M676.343,2074.321l-17.07,3.4a1.528,1.528,0,0,1-1.8-1.2h0a1.528,1.528,0,0,1,1.2-1.8l17.07-3.4a1.529,1.529,0,0,1,1.8,1.2h0A1.528,1.528,0,0,1,676.343,2074.321Z" fill="#007cff"/>
        <path id="Path_91" data-name="Path 91" d="M672.936,2081.564l-12.4,2.472a1.528,1.528,0,0,1-1.8-1.2h0a1.529,1.529,0,0,1,1.2-1.8l12.405-2.472a1.528,1.528,0,0,1,1.8,1.2h0A1.529,1.529,0,0,1,672.936,2081.564Z" fill="#007cff"/>
      </g>
    </g>
    <g id="Group_66" data-name="Group 66">
      <g id="Group_64" data-name="Group 64">
        <rect id="Rectangle_48" data-name="Rectangle 48" width="28.256" height="38.929" transform="translate(687.759 2042.664) rotate(-7.793)" fill="#99a0b0"/>
        <rect id="Rectangle_49" data-name="Rectangle 49" width="28.256" height="38.929" transform="translate(687.759 2042.664) rotate(-7.793)" fill="#fff" opacity="0.7"/>
      </g>
      <g id="Group_65" data-name="Group 65" opacity="0.4">
        <path id="Path_92" data-name="Path 92" d="M711.5,2047.779l-17.245,2.36a1.529,1.529,0,0,1-1.722-1.307h0a1.528,1.528,0,0,1,1.307-1.721l17.245-2.361a1.529,1.529,0,0,1,1.722,1.307h0A1.529,1.529,0,0,1,711.5,2047.779Z" fill="#99a0b0"/>
        <path id="Path_93" data-name="Path 93" d="M712.376,2054.156l-17.245,2.361a1.529,1.529,0,0,1-1.722-1.307h0a1.529,1.529,0,0,1,1.307-1.722l17.245-2.36a1.529,1.529,0,0,1,1.722,1.307h0A1.528,1.528,0,0,1,712.376,2054.156Z" fill="#99a0b0"/>
        <path id="Path_94" data-name="Path 94" d="M700.755,2062.244l-4.751.65a1.529,1.529,0,0,1-1.722-1.307h0a1.53,1.53,0,0,1,1.307-1.722l4.752-.65a1.528,1.528,0,0,1,1.721,1.307h0A1.528,1.528,0,0,1,700.755,2062.244Z" fill="#99a0b0"/>
        <path id="Path_95" data-name="Path 95" d="M709.969,2060.983l-4.751.65a1.529,1.529,0,0,1-1.722-1.307h0a1.53,1.53,0,0,1,1.307-1.722l4.752-.65a1.528,1.528,0,0,1,1.721,1.307h0A1.528,1.528,0,0,1,709.969,2060.983Z" fill="#007cff"/>
        <path id="Path_96" data-name="Path 96" d="M714.121,2066.911l-17.245,2.36a1.527,1.527,0,0,1-1.721-1.307h0a1.528,1.528,0,0,1,1.307-1.721l17.245-2.36a1.527,1.527,0,0,1,1.721,1.307h0A1.527,1.527,0,0,1,714.121,2066.911Z" fill="#99a0b0"/>
        <path id="Path_97" data-name="Path 97" d="M710.281,2073.934l-12.532,1.715a1.528,1.528,0,0,1-1.721-1.307h0a1.528,1.528,0,0,1,1.307-1.722l12.532-1.715a1.528,1.528,0,0,1,1.721,1.307h0A1.529,1.529,0,0,1,710.281,2073.934Z" fill="#99a0b0"/>
      </g>
    </g>
    <g id="Group_69" data-name="Group 69">
      <g id="Group_67" data-name="Group 67">
        <rect id="Rectangle_50" data-name="Rectangle 50" width="28.256" height="38.929" transform="translate(661.188 2046.921) rotate(-4.981)" fill="#99a0b0"/>
        <rect id="Rectangle_51" data-name="Rectangle 51" width="28.256" height="38.929" transform="translate(661.188 2046.921) rotate(-4.981)" fill="#fff" opacity="0.8"/>
      </g>
      <g id="Group_68" data-name="Group 68" opacity="0.4">
        <path id="Path_98" data-name="Path 98" d="M684.653,2053.2l-17.34,1.511a1.53,1.53,0,0,1-1.656-1.39h0a1.528,1.528,0,0,1,1.39-1.655l17.34-1.511a1.527,1.527,0,0,1,1.655,1.389h0A1.529,1.529,0,0,1,684.653,2053.2Z" fill="#99a0b0"/>
        <path id="Path_99" data-name="Path 99" d="M685.211,2059.607l-17.34,1.512a1.529,1.529,0,0,1-1.655-1.39h0a1.53,1.53,0,0,1,1.39-1.656l17.34-1.511a1.528,1.528,0,0,1,1.655,1.39h0A1.527,1.527,0,0,1,685.211,2059.607Z" fill="#99a0b0"/>
        <path id="Path_100" data-name="Path 100" d="M685.77,2066.02l-17.34,1.511a1.528,1.528,0,0,1-1.655-1.39h0a1.528,1.528,0,0,1,1.39-1.655l17.34-1.511a1.527,1.527,0,0,1,1.655,1.39h0A1.528,1.528,0,0,1,685.77,2066.02Z" fill="#99a0b0"/>
        <path id="Path_101" data-name="Path 101" d="M686.329,2072.432l-17.34,1.512a1.528,1.528,0,0,1-1.655-1.39h0a1.528,1.528,0,0,1,1.39-1.655l17.34-1.512a1.528,1.528,0,0,1,1.655,1.39h0A1.528,1.528,0,0,1,686.329,2072.432Z" fill="#99a0b0"/>
        <path id="Path_102" data-name="Path 102" d="M682.149,2079.258l-12.6,1.1a1.527,1.527,0,0,1-1.655-1.39h0a1.528,1.528,0,0,1,1.39-1.655l12.6-1.1a1.528,1.528,0,0,1,1.655,1.39h0A1.528,1.528,0,0,1,682.149,2079.258Z" fill="#007cff"/>
      </g>
    </g>
    <g id="Group_72" data-name="Group 72">
      <g id="Group_70" data-name="Group 70">
        <rect id="Rectangle_52" data-name="Rectangle 52" width="28.256" height="38.929" transform="matrix(0.999, -0.048, 0.048, 0.999, 695.421, 2043.938)" fill="#99a0b0"/>
        <rect id="Rectangle_53" data-name="Rectangle 53" width="28.256" height="38.929" transform="matrix(0.999, -0.048, 0.048, 0.999, 695.421, 2043.938)" fill="#fff" opacity="0.8"/>
      </g>
      <g id="Group_71" data-name="Group 71" opacity="0.4">
        <path id="Path_103" data-name="Path 103" d="M718.625,2051.115l-17.385.839a1.527,1.527,0,0,1-1.6-1.453h0a1.528,1.528,0,0,1,1.453-1.6l17.385-.839a1.528,1.528,0,0,1,1.6,1.453h0A1.528,1.528,0,0,1,718.625,2051.115Z" fill="#99a0b0"/>
        <path id="Path_104" data-name="Path 104" d="M718.936,2057.544l-17.386.84a1.529,1.529,0,0,1-1.6-1.453h0a1.528,1.528,0,0,1,1.453-1.6l17.385-.84a1.529,1.529,0,0,1,1.6,1.453h0A1.528,1.528,0,0,1,718.936,2057.544Z" fill="#99a0b0"/>
        <path id="Path_105" data-name="Path 105" d="M706.651,2064.582l-4.79.231a1.529,1.529,0,0,1-1.6-1.453h0a1.529,1.529,0,0,1,1.453-1.6l4.791-.231a1.528,1.528,0,0,1,1.6,1.453h0A1.528,1.528,0,0,1,706.651,2064.582Z" fill="#99a0b0"/>
        <path id="Path_106" data-name="Path 106" d="M715.94,2064.133l-4.79.232a1.528,1.528,0,0,1-1.6-1.453h0a1.528,1.528,0,0,1,1.453-1.6l4.79-.232a1.528,1.528,0,0,1,1.6,1.453h0A1.527,1.527,0,0,1,715.94,2064.133Z" fill="#99a0b0"/>
        <path id="Path_107" data-name="Path 107" d="M719.557,2070.4l-17.386.839a1.527,1.527,0,0,1-1.6-1.452h0a1.529,1.529,0,0,1,1.453-1.6l17.385-.839a1.529,1.529,0,0,1,1.6,1.453h0A1.529,1.529,0,0,1,719.557,2070.4Z" fill="#99a0b0"/>
        <path id="Path_108" data-name="Path 108" d="M715.116,2077.062l-12.635.61a1.529,1.529,0,0,1-1.6-1.453h0a1.529,1.529,0,0,1,1.453-1.6l12.634-.61a1.528,1.528,0,0,1,1.6,1.453h0A1.528,1.528,0,0,1,715.116,2077.062Z" fill="#007cff"/>
      </g>
    </g>
    <g id="Group_73" data-name="Group 73">
      <path id="Path_109" data-name="Path 109" d="M681.647,2073.242l-.449-1.688a4.939,4.939,0,0,0-5.5-3.574l-24.513,2.867a6.151,6.151,0,0,0-5.407,6.067l1.391,58.393a3.372,3.372,0,0,0,3.885,3.272l87.7-10.257a4.218,4.218,0,0,0,3.708-4.161l-1.2-50.478a3.372,3.372,0,0,0-3.885-3.273l-50.928,5.957A4.319,4.319,0,0,1,681.647,2073.242Z" fill="#d8dae0"/>
    </g>
  </g>
</svg>
