<svg id="Group_198" data-name="Group 198" xmlns="http://www.w3.org/2000/svg" xmlns:xlink="http://www.w3.org/1999/xlink" width="22.264" height="16.761" viewBox="0 0 22.264 16.761">
  <defs>
    <clipPath id="clip-path">
      <rect id="Rectangle_159" data-name="Rectangle 159" width="22.264" height="16.761" fill="none"/>
    </clipPath>
  </defs>
  <g id="Group_197" data-name="Group 197" clip-path="url(#clip-path)">
    <path id="Path_284" data-name="Path 284" d="M7.156,16.761a1.975,1.975,0,0,1-1.882-1.4H.584a.583.583,0,0,1,0-1.167H5.275a1.965,1.965,0,0,1,3.763,0H21.68a.583.583,0,0,1,0,1.167H9.038a1.975,1.975,0,0,1-1.882,1.4m0-2.8a.811.811,0,0,0-.8.818.833.833,0,0,0,.237.581.788.788,0,0,0,1.127,0,.831.831,0,0,0,0-1.162.787.787,0,0,0-.564-.237m9.112-3.592a1.975,1.975,0,0,1-1.906-1.489H.584a.583.583,0,1,1,0-1.167H14.416a1.965,1.965,0,0,1,3.706,0H21.68a.583.583,0,1,1,0,1.167H18.175a1.975,1.975,0,0,1-1.906,1.489m0-2.8A.787.787,0,0,0,15.7,7.8a.831.831,0,0,0,0,1.162.788.788,0,0,0,1.127,0,.831.831,0,0,0,0-1.162.787.787,0,0,0-.564-.237M7.521,3.97a1.975,1.975,0,0,1-1.882-1.4H.583a.583.583,0,0,1,0-1.167H5.64A1.963,1.963,0,0,1,9.4,1.4H21.68a.583.583,0,1,1,0,1.167H9.4a1.975,1.975,0,0,1-1.882,1.4m0-2.8a.811.811,0,0,0-.8.818.833.833,0,0,0,.237.581.788.788,0,0,0,1.127,0,.833.833,0,0,0,.237-.581.811.811,0,0,0-.8-.818"/>
  </g>
</svg>
