<svg xmlns="http://www.w3.org/2000/svg" width="20" height="20" viewBox="0 0 20 20">
  <path id="Path_147" data-name="Path 147" d="M36,2036a10,10,0,1,0,10,10A10,10,0,0,0,36,2036Zm1.41,16.09V2054H34.74v-1.93a3.721,3.721,0,0,1-3.27-3.4h1.96c.1,1.05.82,1.87,2.65,1.87,1.96,0,2.4-.98,2.4-1.59,0-.83-.44-1.61-2.67-2.14-2.48-.6-4.18-1.62-4.18-3.67,0-1.72,1.39-2.84,3.11-3.21V2038h2.67v1.95a3.535,3.535,0,0,1,2.85,3.39H38.3c-.05-1.11-.64-1.87-2.22-1.87-1.5,0-2.4.68-2.4,1.64,0,.84.65,1.39,2.67,1.91s4.18,1.39,4.18,3.91C40.52,2050.76,39.15,2051.76,37.41,2052.09Z" transform="translate(-26 -2036)" fill="#29c17e"/>
</svg>
